<?xml version="1.0" encoding="us-ascii" standalone="no"?><svg xmlns="http://www.w3.org/2000/svg" xmlns:xlink="http://www.w3.org/1999/xlink" contentStyleType="text/css" height="166px" preserveAspectRatio="none" style="width:274px;height:166px;background:#FFFFFF;" version="1.1" viewBox="0 0 274 166" width="274px" zoomAndPan="magnify"><defs/><g><!--entity Model--><g id="elem_Model"><rect fill="#F1F1F1" height="46.2969" rx="2.5" ry="2.5" style="stroke:#181818;stroke-width:0.5;" width="82" x="181" y="114.29"/><rect fill="#F1F1F1" height="10" style="stroke:#181818;stroke-width:0.5;" width="15" x="243" y="119.29"/><rect fill="#F1F1F1" height="2" style="stroke:#181818;stroke-width:0.5;" width="4" x="241" y="121.29"/><rect fill="#F1F1F1" height="2" style="stroke:#181818;stroke-width:0.5;" width="4" x="241" y="125.29"/><text fill="#000000" font-family="sans-serif" font-size="14" lengthAdjust="spacing" textLength="42" x="196" y="147.2851">Model</text></g><!--entity View--><g id="elem_View"><rect fill="#F1F1F1" height="46.2969" rx="2.5" ry="2.5" style="stroke:#181818;stroke-width:0.5;" width="72" x="7" y="114.29"/><rect fill="#F1F1F1" height="10" style="stroke:#181818;stroke-width:0.5;" width="15" x="59" y="119.29"/><rect fill="#F1F1F1" height="2" style="stroke:#181818;stroke-width:0.5;" width="4" x="57" y="121.29"/><rect fill="#F1F1F1" height="2" style="stroke:#181818;stroke-width:0.5;" width="4" x="57" y="125.29"/><text fill="#000000" font-family="sans-serif" font-size="14" lengthAdjust="spacing" textLength="32" x="22" y="147.2851">View</text></g><!--entity Controller--><g id="elem_Controller"><rect fill="#F1F1F1" height="46.2969" rx="2.5" ry="2.5" style="stroke:#181818;stroke-width:0.5;" width="107" x="78.5" y="7"/><rect fill="#F1F1F1" height="10" style="stroke:#181818;stroke-width:0.5;" width="15" x="165.5" y="12"/><rect fill="#F1F1F1" height="2" style="stroke:#181818;stroke-width:0.5;" width="4" x="163.5" y="14"/><rect fill="#F1F1F1" height="2" style="stroke:#181818;stroke-width:0.5;" width="4" x="163.5" y="18"/><text fill="#000000" font-family="sans-serif" font-size="14" lengthAdjust="spacing" textLength="67" x="93.5" y="39.9951">Controller</text></g><!--reverse link View to Model--><g id="link_View_Model"><path d="M85.22,137.44 C114.54,137.44 149.85,137.44 180.5,137.44 " fill="none" id="View-backto-Model" style="stroke:#181818;stroke-width:1.0;"/><polygon fill="#181818" points="79.22,137.44,88.22,141.44,84.22,137.44,88.22,133.44,79.22,137.44" style="stroke:#181818;stroke-width:1.0;"/><text fill="#000000" font-family="sans-serif" font-size="13" lengthAdjust="spacing" textLength="64" x="98" y="115.5069">Win / Lose</text><text fill="#000000" font-family="sans-serif" font-size="13" lengthAdjust="spacing" textLength="65" x="97.5" y="130.6397">Gamefield</text></g><!--link Controller to View--><g id="link_Controller_View"><path d="M112.91,53.73 C97.89,71.5 80.943,91.5474 65.933,109.3074 " fill="none" id="Controller-to-View" style="stroke:#181818;stroke-width:1.0;"/><polygon fill="#181818" points="62.06,113.89,70.9245,109.5981,65.2875,110.0712,64.8144,104.4342,62.06,113.89" style="stroke:#181818;stroke-width:1.0;"/><text fill="#000000" font-family="sans-serif" font-size="13" lengthAdjust="spacing" textLength="77" x="21.8724" y="73.3892">Quit / Pause</text></g><!--link Controller to Model--><g id="link_Controller_Model"><path d="M151.31,53.73 C166.49,71.5 183.6531,91.5678 198.8231,109.3278 " fill="none" id="Controller-to-Model" style="stroke:#181818;stroke-width:1.0;"/><polygon fill="#181818" points="202.72,113.89,199.9161,104.4487,199.4726,110.0881,193.8331,109.6446,202.72,113.89" style="stroke:#181818;stroke-width:1.0;"/><text fill="#000000" font-family="sans-serif" font-size="13" lengthAdjust="spacing" textLength="99" x="168.0824" y="73.3892">Slide Directions</text></g><!--SRC=[JSmz2y8m40RWFR_Y9VlXBj95mQM2KgX3p53C2GTd3l91_xuTHDmVdd2nn1f1IWF2BBn6x76NZ1r6g_p8v-NDBs5DpeMZvLPCbKk4ltLfcxeklR87fL-mmUzwe4xmaqfYdAJmiudbwl4VkGy0]--></g></svg>