<?xml version="1.0" encoding="us-ascii" standalone="no"?><svg xmlns="http://www.w3.org/2000/svg" xmlns:xlink="http://www.w3.org/1999/xlink" contentStyleType="text/css" height="915px" preserveAspectRatio="none" style="width:920px;height:915px;background:#FFFFFF;" version="1.1" viewBox="0 0 920 915" width="920px" zoomAndPan="magnify"><defs/><g><!--cluster Controller--><g id="cluster_Controller"><path d="M8.5,408.63 L88.5,408.63 A3.75,3.75 0 0 1 91,411.13 L98,430.9269 L358.5,430.9269 A2.5,2.5 0 0 1 361,433.4269 L361,629.43 A2.5,2.5 0 0 1 358.5,631.93 L8.5,631.93 A2.5,2.5 0 0 1 6,629.43 L6,411.13 A2.5,2.5 0 0 1 8.5,408.63 " fill="none" style="stroke:#000000;stroke-width:1.5;"/><line style="stroke:#000000;stroke-width:1.5;" x1="6" x2="98" y1="430.9269" y2="430.9269"/><text fill="#000000" font-family="sans-serif" font-size="14" font-weight="bold" lengthAdjust="spacing" textLength="79" x="10" y="423.6251">Controller</text></g><!--cluster Database_--><g id="cluster_Database_"><path d="M375.5,701.93 L456.5,701.93 A3.75,3.75 0 0 1 459,704.43 L466,724.2269 L500.5,724.2269 A2.5,2.5 0 0 1 503,726.7269 L503,906.43 A2.5,2.5 0 0 1 500.5,908.93 L375.5,908.93 A2.5,2.5 0 0 1 373,906.43 L373,704.43 A2.5,2.5 0 0 1 375.5,701.93 " fill="none" style="stroke:#000000;stroke-width:1.5;"/><line style="stroke:#000000;stroke-width:1.5;" x1="373" x2="466" y1="724.2269" y2="724.2269"/><text fill="#000000" font-family="sans-serif" font-size="14" font-weight="bold" lengthAdjust="spacing" textLength="80" x="377" y="716.9251">Database_</text></g><!--cluster Event_Manager--><g id="cluster_Event_Manager"><path d="M98.5,70.63 L218.5,70.63 A3.75,3.75 0 0 1 221,73.13 L228,92.9269 L910.5,92.9269 A2.5,2.5 0 0 1 913,95.4269 L913,275.13 A2.5,2.5 0 0 1 910.5,277.63 L98.5,277.63 A2.5,2.5 0 0 1 96,275.13 L96,73.13 A2.5,2.5 0 0 1 98.5,70.63 " fill="none" style="stroke:#000000;stroke-width:1.5;"/><line style="stroke:#000000;stroke-width:1.5;" x1="96" x2="228" y1="92.9269" y2="92.9269"/><text fill="#000000" font-family="sans-serif" font-size="14" font-weight="bold" lengthAdjust="spacing" textLength="119" x="100" y="85.6251">Event_Manager</text></g><!--cluster Model_--><g id="cluster_Model_"><path d="M387.5,524.78 L442.5,524.78 A3.75,3.75 0 0 1 445,527.28 L452,547.0769 L488.5,547.0769 A2.5,2.5 0 0 1 491,549.5769 L491,621.28 A2.5,2.5 0 0 1 488.5,623.78 L387.5,623.78 A2.5,2.5 0 0 1 385,621.28 L385,527.28 A2.5,2.5 0 0 1 387.5,524.78 " fill="none" style="stroke:#000000;stroke-width:1.5;"/><line style="stroke:#000000;stroke-width:1.5;" x1="385" x2="452" y1="547.0769" y2="547.0769"/><text fill="#000000" font-family="sans-serif" font-size="14" font-weight="bold" lengthAdjust="spacing" textLength="54" x="389" y="539.7751">Model_</text></g><!--cluster View--><g id="cluster_View"><path d="M517.5,408.63 L557.5,408.63 A3.75,3.75 0 0 1 560,411.13 L567,430.9269 L763.5,430.9269 A2.5,2.5 0 0 1 766,433.4269 L766,621.28 A2.5,2.5 0 0 1 763.5,623.78 L517.5,623.78 A2.5,2.5 0 0 1 515,621.28 L515,411.13 A2.5,2.5 0 0 1 517.5,408.63 " fill="none" style="stroke:#000000;stroke-width:1.5;"/><line style="stroke:#000000;stroke-width:1.5;" x1="515" x2="567" y1="430.9269" y2="430.9269"/><text fill="#000000" font-family="sans-serif" font-size="14" font-weight="bold" lengthAdjust="spacing" textLength="39" x="519" y="423.6251">View</text></g><!--class ControllerLocal--><g id="elem_ControllerLocal"><rect codeLine="3" fill="#F1F1F1" height="48" id="ControllerLocal" rx="2.5" ry="2.5" style="stroke:#181818;stroke-width:0.5;" width="134" x="22" y="559.78"/><ellipse cx="37" cy="575.78" fill="#ADD1B2" rx="11" ry="11" style="stroke:#181818;stroke-width:1.0;"/><path d="M39.9688,581.4206 Q39.3906,581.7175 38.75,581.8581 Q38.1094,582.0144 37.4063,582.0144 Q34.9063,582.0144 33.5781,580.3738 Q32.2656,578.7175 32.2656,575.5925 Q32.2656,572.4675 33.5781,570.8113 Q34.9063,569.155 37.4063,569.155 Q38.1094,569.155 38.75,569.3113 Q39.4063,569.4675 39.9688,569.7644 L39.9688,572.4831 Q39.3438,571.905 38.75,571.6394 Q38.1563,571.3581 37.5313,571.3581 Q36.1875,571.3581 35.5,572.4363 Q34.8125,573.4988 34.8125,575.5925 Q34.8125,577.6863 35.5,578.7644 Q36.1875,579.8269 37.5313,579.8269 Q38.1563,579.8269 38.75,579.5613 Q39.3438,579.28 39.9688,578.7019 L39.9688,581.4206 Z " fill="#000000"/><text fill="#000000" font-family="sans-serif" font-size="14" lengthAdjust="spacing" textLength="102" x="51" y="580.6267">ControllerLocal</text><line style="stroke:#181818;stroke-width:0.5;" x1="23" x2="155" y1="591.78" y2="591.78"/><line style="stroke:#181818;stroke-width:1.0;" x1="23" x2="155" y1="599.78" y2="599.78"/></g><!--class ControllerRemote--><g id="elem_ControllerRemote"><rect codeLine="7" fill="#F1F1F1" height="64.2969" id="ControllerRemote" rx="2.5" ry="2.5" style="stroke:#181818;stroke-width:0.5;" width="154" x="191" y="551.63"/><ellipse cx="206" cy="567.63" fill="#ADD1B2" rx="11" ry="11" style="stroke:#181818;stroke-width:1.0;"/><path d="M208.9688,573.2706 Q208.3906,573.5675 207.75,573.7081 Q207.1094,573.8644 206.4063,573.8644 Q203.9063,573.8644 202.5781,572.2238 Q201.2656,570.5675 201.2656,567.4425 Q201.2656,564.3175 202.5781,562.6613 Q203.9063,561.005 206.4063,561.005 Q207.1094,561.005 207.75,561.1613 Q208.4063,561.3175 208.9688,561.6144 L208.9688,564.3331 Q208.3438,563.755 207.75,563.4894 Q207.1563,563.2081 206.5313,563.2081 Q205.1875,563.2081 204.5,564.2863 Q203.8125,565.3488 203.8125,567.4425 Q203.8125,569.5363 204.5,570.6144 Q205.1875,571.6769 206.5313,571.6769 Q207.1563,571.6769 207.75,571.4113 Q208.3438,571.13 208.9688,570.5519 L208.9688,573.2706 Z " fill="#000000"/><text fill="#000000" font-family="sans-serif" font-size="14" lengthAdjust="spacing" textLength="122" x="220" y="572.4767">ControllerRemote</text><line style="stroke:#181818;stroke-width:0.5;" x1="192" x2="344" y1="583.63" y2="583.63"/><text fill="#000000" font-family="sans-serif" font-size="14" lengthAdjust="spacing" textLength="15" x="197" y="600.6251">---</text><line style="stroke:#181818;stroke-width:0.5;" x1="192" x2="344" y1="607.9269" y2="607.9269"/></g><!--class InterfaceController--><g id="elem_InterfaceController"><rect codeLine="12" fill="#F1F1F1" height="48" id="InterfaceController" rx="2.5" ry="2.5" style="stroke:#181818;stroke-width:0.5;" width="159" x="186.5" y="443.63"/><ellipse cx="201.5" cy="459.63" fill="#A9DCDF" rx="11" ry="11" style="stroke:#181818;stroke-width:1.0;"/><path d="M201.6094,454.9737 L200.4531,460.0519 L202.7813,460.0519 L201.6094,454.9737 Z M200.125,452.7394 L203.1094,452.7394 L206.4688,465.13 L204.0156,465.13 L203.25,462.0675 L199.9688,462.0675 L199.2188,465.13 L196.7813,465.13 L200.125,452.7394 Z " fill="#000000"/><text fill="#000000" font-family="sans-serif" font-size="14" font-style="italic" lengthAdjust="spacing" textLength="127" x="215.5" y="464.4767">InterfaceController</text><line style="stroke:#181818;stroke-width:0.5;" x1="187.5" x2="344.5" y1="475.63" y2="475.63"/><line style="stroke:#181818;stroke-width:1.0;" x1="187.5" x2="344.5" y1="483.63" y2="483.63"/></g><!--class Database--><g id="elem_Database"><rect codeLine="18" fill="#F1F1F1" height="48" id="Database" rx="2.5" ry="2.5" style="stroke:#181818;stroke-width:0.5;" width="98" x="389" y="736.93"/><ellipse cx="404" cy="752.93" fill="#ADD1B2" rx="11" ry="11" style="stroke:#181818;stroke-width:1.0;"/><path d="M406.9688,758.5706 Q406.3906,758.8675 405.75,759.0081 Q405.1094,759.1644 404.4063,759.1644 Q401.9063,759.1644 400.5781,757.5238 Q399.2656,755.8675 399.2656,752.7425 Q399.2656,749.6175 400.5781,747.9613 Q401.9063,746.305 404.4063,746.305 Q405.1094,746.305 405.75,746.4613 Q406.4063,746.6175 406.9688,746.9144 L406.9688,749.6331 Q406.3438,749.055 405.75,748.7894 Q405.1563,748.5081 404.5313,748.5081 Q403.1875,748.5081 402.5,749.5863 Q401.8125,750.6488 401.8125,752.7425 Q401.8125,754.8363 402.5,755.9144 Q403.1875,756.9769 404.5313,756.9769 Q405.1563,756.9769 405.75,756.7113 Q406.3438,756.43 406.9688,755.8519 L406.9688,758.5706 Z " fill="#000000"/><text fill="#000000" font-family="sans-serif" font-size="14" lengthAdjust="spacing" textLength="66" x="418" y="757.7767">Database</text><line style="stroke:#181818;stroke-width:0.5;" x1="390" x2="486" y1="768.93" y2="768.93"/><line style="stroke:#181818;stroke-width:1.0;" x1="390" x2="486" y1="776.93" y2="776.93"/></g><!--class Logging--><g id="elem_Logging"><rect codeLine="22" fill="#F1F1F1" height="48" id="Logging" rx="2.5" ry="2.5" style="stroke:#181818;stroke-width:0.5;" width="87" x="394.5" y="844.93"/><ellipse cx="409.5" cy="860.93" fill="#ADD1B2" rx="11" ry="11" style="stroke:#181818;stroke-width:1.0;"/><path d="M412.4688,866.5706 Q411.8906,866.8675 411.25,867.0081 Q410.6094,867.1644 409.9063,867.1644 Q407.4063,867.1644 406.0781,865.5238 Q404.7656,863.8675 404.7656,860.7425 Q404.7656,857.6175 406.0781,855.9613 Q407.4063,854.305 409.9063,854.305 Q410.6094,854.305 411.25,854.4613 Q411.9063,854.6175 412.4688,854.9144 L412.4688,857.6331 Q411.8438,857.055 411.25,856.7894 Q410.6563,856.5081 410.0313,856.5081 Q408.6875,856.5081 408,857.5863 Q407.3125,858.6488 407.3125,860.7425 Q407.3125,862.8363 408,863.9144 Q408.6875,864.9769 410.0313,864.9769 Q410.6563,864.9769 411.25,864.7113 Q411.8438,864.43 412.4688,863.8519 L412.4688,866.5706 Z " fill="#000000"/><text fill="#000000" font-family="sans-serif" font-size="14" lengthAdjust="spacing" textLength="55" x="423.5" y="865.7767">Logging</text><line style="stroke:#181818;stroke-width:0.5;" x1="395.5" x2="480.5" y1="876.93" y2="876.93"/><line style="stroke:#181818;stroke-width:0.5;" x1="395.5" x2="480.5" y1="884.93" y2="884.93"/></g><!--class Event--><g id="elem_Event"><rect codeLine="27" fill="#F1F1F1" height="48" id="Event" rx="2.5" ry="2.5" style="stroke:#181818;stroke-width:0.5;" width="71" x="392.5" y="105.63"/><ellipse cx="407.5" cy="121.63" fill="#A9DCDF" rx="11" ry="11" style="stroke:#181818;stroke-width:1.0;"/><path d="M407.6094,116.9738 L406.4531,122.0519 L408.7813,122.0519 L407.6094,116.9738 Z M406.125,114.7394 L409.1094,114.7394 L412.4688,127.13 L410.0156,127.13 L409.25,124.0675 L405.9688,124.0675 L405.2188,127.13 L402.7813,127.13 L406.125,114.7394 Z " fill="#000000"/><text fill="#000000" font-family="sans-serif" font-size="14" font-style="italic" lengthAdjust="spacing" textLength="39" x="421.5" y="126.4767">Event</text><line style="stroke:#181818;stroke-width:0.5;" x1="393.5" x2="462.5" y1="137.63" y2="137.63"/><line style="stroke:#181818;stroke-width:1.0;" x1="393.5" x2="462.5" y1="145.63" y2="145.63"/></g><!--class QuitEvent--><g id="elem_QuitEvent"><rect codeLine="31" fill="#F1F1F1" height="48" id="QuitEvent" rx="2.5" ry="2.5" style="stroke:#181818;stroke-width:0.5;" width="99" x="797.5" y="105.63"/><ellipse cx="812.5" cy="121.63" fill="#ADD1B2" rx="11" ry="11" style="stroke:#181818;stroke-width:1.0;"/><path d="M815.4688,127.2706 Q814.8906,127.5675 814.25,127.7081 Q813.6094,127.8644 812.9063,127.8644 Q810.4063,127.8644 809.0781,126.2238 Q807.7656,124.5675 807.7656,121.4425 Q807.7656,118.3175 809.0781,116.6613 Q810.4063,115.005 812.9063,115.005 Q813.6094,115.005 814.25,115.1613 Q814.9063,115.3175 815.4688,115.6144 L815.4688,118.3331 Q814.8438,117.755 814.25,117.4894 Q813.6563,117.2081 813.0313,117.2081 Q811.6875,117.2081 811,118.2863 Q810.3125,119.3488 810.3125,121.4425 Q810.3125,123.5363 811,124.6144 Q811.6875,125.6769 813.0313,125.6769 Q813.6563,125.6769 814.25,125.4113 Q814.8438,125.13 815.4688,124.5519 L815.4688,127.2706 Z " fill="#000000"/><text fill="#000000" font-family="sans-serif" font-size="14" lengthAdjust="spacing" textLength="67" x="826.5" y="126.4767">QuitEvent</text><line style="stroke:#181818;stroke-width:0.5;" x1="798.5" x2="895.5" y1="137.63" y2="137.63"/><line style="stroke:#181818;stroke-width:1.0;" x1="798.5" x2="895.5" y1="145.63" y2="145.63"/></g><!--class StartEvent--><g id="elem_StartEvent"><rect codeLine="35" fill="#F1F1F1" height="48" id="StartEvent" rx="2.5" ry="2.5" style="stroke:#181818;stroke-width:0.5;" width="103" x="659.5" y="105.63"/><ellipse cx="674.5" cy="121.63" fill="#ADD1B2" rx="11" ry="11" style="stroke:#181818;stroke-width:1.0;"/><path d="M677.4688,127.2706 Q676.8906,127.5675 676.25,127.7081 Q675.6094,127.8644 674.9063,127.8644 Q672.4063,127.8644 671.0781,126.2238 Q669.7656,124.5675 669.7656,121.4425 Q669.7656,118.3175 671.0781,116.6613 Q672.4063,115.005 674.9063,115.005 Q675.6094,115.005 676.25,115.1613 Q676.9063,115.3175 677.4688,115.6144 L677.4688,118.3331 Q676.8438,117.755 676.25,117.4894 Q675.6563,117.2081 675.0313,117.2081 Q673.6875,117.2081 673,118.2863 Q672.3125,119.3488 672.3125,121.4425 Q672.3125,123.5363 673,124.6144 Q673.6875,125.6769 675.0313,125.6769 Q675.6563,125.6769 676.25,125.4113 Q676.8438,125.13 677.4688,124.5519 L677.4688,127.2706 Z " fill="#000000"/><text fill="#000000" font-family="sans-serif" font-size="14" lengthAdjust="spacing" textLength="71" x="688.5" y="126.4767">StartEvent</text><line style="stroke:#181818;stroke-width:0.5;" x1="660.5" x2="761.5" y1="137.63" y2="137.63"/><line style="stroke:#181818;stroke-width:1.0;" x1="660.5" x2="761.5" y1="145.63" y2="145.63"/></g><!--class InputRequest--><g id="elem_InputRequest"><rect codeLine="39" fill="#F1F1F1" height="48" id="InputRequest" rx="2.5" ry="2.5" style="stroke:#181818;stroke-width:0.5;" width="126" x="498" y="105.63"/><ellipse cx="513" cy="121.63" fill="#ADD1B2" rx="11" ry="11" style="stroke:#181818;stroke-width:1.0;"/><path d="M515.9688,127.2706 Q515.3906,127.5675 514.75,127.7081 Q514.1094,127.8644 513.4063,127.8644 Q510.9063,127.8644 509.5781,126.2238 Q508.2656,124.5675 508.2656,121.4425 Q508.2656,118.3175 509.5781,116.6613 Q510.9063,115.005 513.4063,115.005 Q514.1094,115.005 514.75,115.1613 Q515.4063,115.3175 515.9688,115.6144 L515.9688,118.3331 Q515.3438,117.755 514.75,117.4894 Q514.1563,117.2081 513.5313,117.2081 Q512.1875,117.2081 511.5,118.2863 Q510.8125,119.3488 510.8125,121.4425 Q510.8125,123.5363 511.5,124.6144 Q512.1875,125.6769 513.5313,125.6769 Q514.1563,125.6769 514.75,125.4113 Q515.3438,125.13 515.9688,124.5519 L515.9688,127.2706 Z " fill="#000000"/><text fill="#000000" font-family="sans-serif" font-size="14" lengthAdjust="spacing" textLength="94" x="527" y="126.4767">InputRequest</text><line style="stroke:#181818;stroke-width:0.5;" x1="499" x2="623" y1="137.63" y2="137.63"/><line style="stroke:#181818;stroke-width:1.0;" x1="499" x2="623" y1="145.63" y2="145.63"/></g><!--class StateEvent--><g id="elem_StateEvent"><rect codeLine="43" fill="#F1F1F1" height="48" id="StateEvent" rx="2.5" ry="2.5" style="stroke:#181818;stroke-width:0.5;" width="107" x="250.5" y="105.63"/><ellipse cx="265.5" cy="121.63" fill="#ADD1B2" rx="11" ry="11" style="stroke:#181818;stroke-width:1.0;"/><path d="M268.4688,127.2706 Q267.8906,127.5675 267.25,127.7081 Q266.6094,127.8644 265.9063,127.8644 Q263.4063,127.8644 262.0781,126.2238 Q260.7656,124.5675 260.7656,121.4425 Q260.7656,118.3175 262.0781,116.6613 Q263.4063,115.005 265.9063,115.005 Q266.6094,115.005 267.25,115.1613 Q267.9063,115.3175 268.4688,115.6144 L268.4688,118.3331 Q267.8438,117.755 267.25,117.4894 Q266.6563,117.2081 266.0313,117.2081 Q264.6875,117.2081 264,118.2863 Q263.3125,119.3488 263.3125,121.4425 Q263.3125,123.5363 264,124.6144 Q264.6875,125.6769 266.0313,125.6769 Q266.6563,125.6769 267.25,125.4113 Q267.8438,125.13 268.4688,124.5519 L268.4688,127.2706 Z " fill="#000000"/><text fill="#000000" font-family="sans-serif" font-size="14" lengthAdjust="spacing" textLength="75" x="279.5" y="126.4767">StateEvent</text><line style="stroke:#181818;stroke-width:0.5;" x1="251.5" x2="356.5" y1="137.63" y2="137.63"/><line style="stroke:#181818;stroke-width:1.0;" x1="251.5" x2="356.5" y1="145.63" y2="145.63"/></g><!--class SlideEvent--><g id="elem_SlideEvent"><rect codeLine="47" fill="#F1F1F1" height="48" id="SlideEvent" rx="2.5" ry="2.5" style="stroke:#181818;stroke-width:0.5;" width="104" x="112" y="105.63"/><ellipse cx="127" cy="121.63" fill="#ADD1B2" rx="11" ry="11" style="stroke:#181818;stroke-width:1.0;"/><path d="M129.9688,127.2706 Q129.3906,127.5675 128.75,127.7081 Q128.1094,127.8644 127.4063,127.8644 Q124.9063,127.8644 123.5781,126.2238 Q122.2656,124.5675 122.2656,121.4425 Q122.2656,118.3175 123.5781,116.6613 Q124.9063,115.005 127.4063,115.005 Q128.1094,115.005 128.75,115.1613 Q129.4063,115.3175 129.9688,115.6144 L129.9688,118.3331 Q129.3438,117.755 128.75,117.4894 Q128.1563,117.2081 127.5313,117.2081 Q126.1875,117.2081 125.5,118.2863 Q124.8125,119.3488 124.8125,121.4425 Q124.8125,123.5363 125.5,124.6144 Q126.1875,125.6769 127.5313,125.6769 Q128.1563,125.6769 128.75,125.4113 Q129.3438,125.13 129.9688,124.5519 L129.9688,127.2706 Z " fill="#000000"/><text fill="#000000" font-family="sans-serif" font-size="14" lengthAdjust="spacing" textLength="72" x="141" y="126.4767">SlideEvent</text><line style="stroke:#181818;stroke-width:0.5;" x1="113" x2="215" y1="137.63" y2="137.63"/><line style="stroke:#181818;stroke-width:1.0;" x1="113" x2="215" y1="145.63" y2="145.63"/></g><!--class EventManager--><g id="elem_EventManager"><rect codeLine="58" fill="#F1F1F1" height="48" id="EventManager" rx="2.5" ry="2.5" style="stroke:#181818;stroke-width:0.5;" width="131" x="372.5" y="213.63"/><ellipse cx="387.5" cy="229.63" fill="#ADD1B2" rx="11" ry="11" style="stroke:#181818;stroke-width:1.0;"/><path d="M390.4688,235.2706 Q389.8906,235.5675 389.25,235.7081 Q388.6094,235.8644 387.9063,235.8644 Q385.4063,235.8644 384.0781,234.2238 Q382.7656,232.5675 382.7656,229.4425 Q382.7656,226.3175 384.0781,224.6613 Q385.4063,223.005 387.9063,223.005 Q388.6094,223.005 389.25,223.1613 Q389.9063,223.3175 390.4688,223.6144 L390.4688,226.3331 Q389.8438,225.755 389.25,225.4894 Q388.6563,225.2081 388.0313,225.2081 Q386.6875,225.2081 386,226.2863 Q385.3125,227.3488 385.3125,229.4425 Q385.3125,231.5363 386,232.6144 Q386.6875,233.6769 388.0313,233.6769 Q388.6563,233.6769 389.25,233.4113 Q389.8438,233.13 390.4688,232.5519 L390.4688,235.2706 Z " fill="#000000"/><text fill="#000000" font-family="sans-serif" font-size="14" lengthAdjust="spacing" textLength="99" x="401.5" y="234.4767">EventManager</text><line style="stroke:#181818;stroke-width:0.5;" x1="373.5" x2="502.5" y1="245.63" y2="245.63"/><line style="stroke:#181818;stroke-width:1.0;" x1="373.5" x2="502.5" y1="253.63" y2="253.63"/></g><!--class Command--><g id="elem_Command"><rect codeLine="62" fill="#F1F1F1" height="48" id="Command" rx="2.5" ry="2.5" style="stroke:#181818;stroke-width:0.5;" width="103" x="112.5" y="213.63"/><ellipse cx="127.5" cy="229.63" fill="#ADD1B2" rx="11" ry="11" style="stroke:#181818;stroke-width:1.0;"/><path d="M130.4688,235.2706 Q129.8906,235.5675 129.25,235.7081 Q128.6094,235.8644 127.9063,235.8644 Q125.4063,235.8644 124.0781,234.2238 Q122.7656,232.5675 122.7656,229.4425 Q122.7656,226.3175 124.0781,224.6613 Q125.4063,223.005 127.9063,223.005 Q128.6094,223.005 129.25,223.1613 Q129.9063,223.3175 130.4688,223.6144 L130.4688,226.3331 Q129.8438,225.755 129.25,225.4894 Q128.6563,225.2081 128.0313,225.2081 Q126.6875,225.2081 126,226.2863 Q125.3125,227.3488 125.3125,229.4425 Q125.3125,231.5363 126,232.6144 Q126.6875,233.6769 128.0313,233.6769 Q128.6563,233.6769 129.25,233.4113 Q129.8438,233.13 130.4688,232.5519 L130.4688,235.2706 Z " fill="#000000"/><text fill="#000000" font-family="sans-serif" font-size="14" lengthAdjust="spacing" textLength="71" x="141.5" y="234.4767">Command</text><line style="stroke:#181818;stroke-width:0.5;" x1="113.5" x2="214.5" y1="245.63" y2="245.63"/><line style="stroke:#181818;stroke-width:0.5;" x1="113.5" x2="214.5" y1="253.63" y2="253.63"/></g><!--class Screen--><g id="elem_Screen"><rect codeLine="65" fill="#F1F1F1" height="48" id="Screen" rx="2.5" ry="2.5" style="stroke:#181818;stroke-width:0.5;" width="81" x="256.5" y="213.63"/><ellipse cx="271.5" cy="229.63" fill="#ADD1B2" rx="11" ry="11" style="stroke:#181818;stroke-width:1.0;"/><path d="M274.4688,235.2706 Q273.8906,235.5675 273.25,235.7081 Q272.6094,235.8644 271.9063,235.8644 Q269.4063,235.8644 268.0781,234.2238 Q266.7656,232.5675 266.7656,229.4425 Q266.7656,226.3175 268.0781,224.6613 Q269.4063,223.005 271.9063,223.005 Q272.6094,223.005 273.25,223.1613 Q273.9063,223.3175 274.4688,223.6144 L274.4688,226.3331 Q273.8438,225.755 273.25,225.4894 Q272.6563,225.2081 272.0313,225.2081 Q270.6875,225.2081 270,226.2863 Q269.3125,227.3488 269.3125,229.4425 Q269.3125,231.5363 270,232.6144 Q270.6875,233.6769 272.0313,233.6769 Q272.6563,233.6769 273.25,233.4113 Q273.8438,233.13 274.4688,232.5519 L274.4688,235.2706 Z " fill="#000000"/><text fill="#000000" font-family="sans-serif" font-size="14" lengthAdjust="spacing" textLength="49" x="285.5" y="234.4767">Screen</text><line style="stroke:#181818;stroke-width:0.5;" x1="257.5" x2="336.5" y1="245.63" y2="245.63"/><line style="stroke:#181818;stroke-width:0.5;" x1="257.5" x2="336.5" y1="253.63" y2="253.63"/></g><!--class Model--><g id="elem_Model"><rect codeLine="70" fill="#F1F1F1" height="48" id="Model" rx="2.5" ry="2.5" style="stroke:#181818;stroke-width:0.5;" width="74" x="401" y="559.78"/><ellipse cx="416" cy="575.78" fill="#ADD1B2" rx="11" ry="11" style="stroke:#181818;stroke-width:1.0;"/><path d="M418.9688,581.4206 Q418.3906,581.7175 417.75,581.8581 Q417.1094,582.0144 416.4063,582.0144 Q413.9063,582.0144 412.5781,580.3738 Q411.2656,578.7175 411.2656,575.5925 Q411.2656,572.4675 412.5781,570.8113 Q413.9063,569.155 416.4063,569.155 Q417.1094,569.155 417.75,569.3113 Q418.4063,569.4675 418.9688,569.7644 L418.9688,572.4831 Q418.3438,571.905 417.75,571.6394 Q417.1563,571.3581 416.5313,571.3581 Q415.1875,571.3581 414.5,572.4363 Q413.8125,573.4988 413.8125,575.5925 Q413.8125,577.6863 414.5,578.7644 Q415.1875,579.8269 416.5313,579.8269 Q417.1563,579.8269 417.75,579.5613 Q418.3438,579.28 418.9688,578.7019 L418.9688,581.4206 Z " fill="#000000"/><text fill="#000000" font-family="sans-serif" font-size="14" lengthAdjust="spacing" textLength="42" x="430" y="580.6267">Model</text><line style="stroke:#181818;stroke-width:0.5;" x1="402" x2="474" y1="591.78" y2="591.78"/><line style="stroke:#181818;stroke-width:1.0;" x1="402" x2="474" y1="599.78" y2="599.78"/></g><!--class ViewShell--><g id="elem_ViewShell"><rect codeLine="76" fill="#F1F1F1" height="48" id="ViewShell" rx="2.5" ry="2.5" style="stroke:#181818;stroke-width:0.5;" width="97" x="530.5" y="559.78"/><ellipse cx="545.5" cy="575.78" fill="#ADD1B2" rx="11" ry="11" style="stroke:#181818;stroke-width:1.0;"/><path d="M548.4688,581.4206 Q547.8906,581.7175 547.25,581.8581 Q546.6094,582.0144 545.9063,582.0144 Q543.4063,582.0144 542.0781,580.3738 Q540.7656,578.7175 540.7656,575.5925 Q540.7656,572.4675 542.0781,570.8113 Q543.4063,569.155 545.9063,569.155 Q546.6094,569.155 547.25,569.3113 Q547.9063,569.4675 548.4688,569.7644 L548.4688,572.4831 Q547.8438,571.905 547.25,571.6394 Q546.6563,571.3581 546.0313,571.3581 Q544.6875,571.3581 544,572.4363 Q543.3125,573.4988 543.3125,575.5925 Q543.3125,577.6863 544,578.7644 Q544.6875,579.8269 546.0313,579.8269 Q546.6563,579.8269 547.25,579.5613 Q547.8438,579.28 548.4688,578.7019 L548.4688,581.4206 Z " fill="#000000"/><text fill="#000000" font-family="sans-serif" font-size="14" lengthAdjust="spacing" textLength="65" x="559.5" y="580.6267">ViewShell</text><line style="stroke:#181818;stroke-width:0.5;" x1="531.5" x2="626.5" y1="591.78" y2="591.78"/><line style="stroke:#181818;stroke-width:1.0;" x1="531.5" x2="626.5" y1="599.78" y2="599.78"/></g><!--class ViewGUI--><g id="elem_ViewGUI"><rect codeLine="80" fill="#F1F1F1" height="48" id="ViewGUI" rx="2.5" ry="2.5" style="stroke:#181818;stroke-width:0.5;" width="88" x="662" y="559.78"/><ellipse cx="677" cy="575.78" fill="#ADD1B2" rx="11" ry="11" style="stroke:#181818;stroke-width:1.0;"/><path d="M679.9688,581.4206 Q679.3906,581.7175 678.75,581.8581 Q678.1094,582.0144 677.4063,582.0144 Q674.9063,582.0144 673.5781,580.3738 Q672.2656,578.7175 672.2656,575.5925 Q672.2656,572.4675 673.5781,570.8113 Q674.9063,569.155 677.4063,569.155 Q678.1094,569.155 678.75,569.3113 Q679.4063,569.4675 679.9688,569.7644 L679.9688,572.4831 Q679.3438,571.905 678.75,571.6394 Q678.1563,571.3581 677.5313,571.3581 Q676.1875,571.3581 675.5,572.4363 Q674.8125,573.4988 674.8125,575.5925 Q674.8125,577.6863 675.5,578.7644 Q676.1875,579.8269 677.5313,579.8269 Q678.1563,579.8269 678.75,579.5613 Q679.3438,579.28 679.9688,578.7019 L679.9688,581.4206 Z " fill="#000000"/><text fill="#000000" font-family="sans-serif" font-size="14" lengthAdjust="spacing" textLength="56" x="691" y="580.6267">ViewGUI</text><line style="stroke:#181818;stroke-width:0.5;" x1="663" x2="749" y1="591.78" y2="591.78"/><line style="stroke:#181818;stroke-width:1.0;" x1="663" x2="749" y1="599.78" y2="599.78"/></g><!--class InterfaceView--><g id="elem_InterfaceView"><rect codeLine="84" fill="#F1F1F1" height="48" id="InterfaceView" rx="2.5" ry="2.5" style="stroke:#181818;stroke-width:0.5;" width="124" x="531" y="443.63"/><ellipse cx="546" cy="459.63" fill="#A9DCDF" rx="11" ry="11" style="stroke:#181818;stroke-width:1.0;"/><path d="M546.1094,454.9737 L544.9531,460.0519 L547.2813,460.0519 L546.1094,454.9737 Z M544.625,452.7394 L547.6094,452.7394 L550.9688,465.13 L548.5156,465.13 L547.75,462.0675 L544.4688,462.0675 L543.7188,465.13 L541.2813,465.13 L544.625,452.7394 Z " fill="#000000"/><text fill="#000000" font-family="sans-serif" font-size="14" font-style="italic" lengthAdjust="spacing" textLength="92" x="560" y="464.4767">InterfaceView</text><line style="stroke:#181818;stroke-width:0.5;" x1="532" x2="654" y1="475.63" y2="475.63"/><line style="stroke:#181818;stroke-width:1.0;" x1="532" x2="654" y1="483.63" y2="483.63"/></g><!--reverse link Event to QuitEvent--><g id="link_Event_QuitEvent"><path codeLine="51" d="M445.3802,88.9986 C456.2902,65.5386 468.82,47.75 498.5,32.63 C550.77,6 709.1,8.33 762.5,32.63 C795.02,47.43 819.9,81.62 833.99,105.19 " fill="none" id="Event-backto-QuitEvent" style="stroke:#181818;stroke-width:1.0;"/><polygon fill="none" points="437.79,105.32,450.8207,91.5287,439.9398,86.4685,437.79,105.32" style="stroke:#181818;stroke-width:1.0;"/></g><!--reverse link Event to StartEvent--><g id="link_Event_StartEvent"><path codeLine="52" d="M445.3802,88.9986 C456.2902,65.5386 468.82,47.75 498.5,32.63 C548.4,7.21 573.4,9.73 624.5,32.63 C657.45,47.4 683,81.6 697.53,105.17 " fill="none" id="Event-backto-StartEvent" style="stroke:#181818;stroke-width:1.0;"/><polygon fill="none" points="437.79,105.32,450.8207,91.5287,439.9398,86.4685,437.79,105.32" style="stroke:#181818;stroke-width:1.0;"/></g><!--link StateEvent to Event--><g id="link_StateEvent_Event"><path codeLine="53" d="M357.77,129.63 C369.2,129.63 362.63,129.63 374.06,129.63 " fill="none" id="StateEvent-to-Event" style="stroke:#181818;stroke-width:1.0;"/><polygon fill="none" points="392.06,129.63,374.06,123.63,374.06,135.63,392.06,129.63" style="stroke:#181818;stroke-width:1.0;"/></g><!--reverse link Event to InputRequest--><g id="link_Event_InputRequest"><path codeLine="54" d="M481.85,129.63 C493.11,129.63 486.36,129.63 497.62,129.63 " fill="none" id="Event-backto-InputRequest" style="stroke:#181818;stroke-width:1.0;"/><polygon fill="none" points="463.85,129.63,481.85,135.63,481.85,123.63,463.85,129.63" style="stroke:#181818;stroke-width:1.0;"/></g><!--link SlideEvent to Event--><g id="link_SlideEvent_Event"><path codeLine="55" d="M177.47,105.17 C192,81.6 217.55,47.4 250.5,32.63 C293.9,13.19 315.13,11.05 357.5,32.63 C387.18,47.75 399.7098,65.5386 410.6198,88.9986 " fill="none" id="SlideEvent-to-Event" style="stroke:#181818;stroke-width:1.0;"/><polygon fill="none" points="418.21,105.32,416.0602,86.4685,405.1793,91.5287,418.21,105.32" style="stroke:#181818;stroke-width:1.0;"/></g><!--reverse link InterfaceController to ControllerLocal--><g id="link_InterfaceController_ControllerLocal"><path codeLine="89" d="M200.7501,500.167 C186.3301,507.577 186.76,507.93 173,516.78 C153.04,529.63 132.04,546.13 116.03,559.42 " fill="none" id="InterfaceController-backto-ControllerLocal" style="stroke:#181818;stroke-width:1.0;"/><polygon fill="none" points="216.76,491.94,198.0078,494.8304,203.4924,505.5036,216.76,491.94" style="stroke:#181818;stroke-width:1.0;"/></g><!--reverse link InterfaceController to ControllerRemote--><g id="link_InterfaceController_ControllerRemote"><path codeLine="90" d="M266.7259,510.0072 C267.0259,527.0972 267.12,532.47 267.45,551.21 " fill="none" id="InterfaceController-backto-ControllerRemote" style="stroke:#181818;stroke-width:1.0;"/><polygon fill="none" points="266.41,492.01,260.7268,510.1125,272.725,509.9019,266.41,492.01" style="stroke:#181818;stroke-width:1.0;"/></g><!--reverse link InterfaceView to ViewGUI--><g id="link_InterfaceView_ViewGUI"><path codeLine="91" d="M632.2739,504.1901 C640.6939,511.9401 636.74,508.51 645,516.78 C658.78,530.58 673.65,546.64 685.26,559.46 " fill="none" id="InterfaceView-backto-ViewGUI" style="stroke:#181818;stroke-width:1.0;"/><polygon fill="none" points="619.03,492,628.2106,508.6047,636.3373,499.7754,619.03,492" style="stroke:#181818;stroke-width:1.0;"/></g><!--reverse link InterfaceView to ViewShell--><g id="link_InterfaceView_ViewShell"><path codeLine="92" d="M587.9443,509.8768 C585.5343,529.5768 584.28,539.75 581.86,559.44 " fill="none" id="InterfaceView-backto-ViewShell" style="stroke:#181818;stroke-width:1.0;"/><polygon fill="none" points="590.13,492.01,581.9887,509.1482,593.8999,510.6054,590.13,492.01" style="stroke:#181818;stroke-width:1.0;"/></g><!--reverse link InterfaceView to Model--><g id="link_InterfaceView_Model"><path codeLine="94" d="M542.3047,498.2241 C529.9847,505.7641 526.82,508.15 515,516.78 C496.94,529.97 477.85,546.32 463.2,559.44 " fill="none" id="InterfaceView-backto-Model" style="stroke:#181818;stroke-width:1.0;"/><polygon fill="none" points="552.54,491.96,545.3343,491.6803,542.3047,498.2241,549.5104,498.5038,552.54,491.96" style="stroke:#181818;stroke-width:1.0;"/></g><!--link EventManager to Model--><g id="link_EventManager_Model"><path codeLine="96" d="M431.17,262.02 C423.28,324.8 421.7848,484.6335 429.6748,547.4635 " fill="none" id="EventManager-to-Model" style="stroke:#181818;stroke-width:1.0;"/><polygon fill="none" points="431.17,559.37,434.3912,552.9184,429.6748,547.4635,426.4536,553.9151,431.17,559.37" style="stroke:#181818;stroke-width:1.0;"/></g><!--link EventManager to Model--><g id="link_EventManager_Model"><path codeLine="102" d="M445.23,262.02 C453.59,324.8 454.3814,490.5924 446.0214,553.4224 " fill="none" id="EventManager-to-Model-1" style="stroke:#181818;stroke-width:1.0;"/><polygon fill="#181818" points="445.23,559.37,450.3821,550.9762,445.8895,554.4137,442.452,549.921,445.23,559.37" style="stroke:#181818;stroke-width:1.0;"/></g><!--link EventManager to InterfaceView--><g id="link_EventManager_InterfaceView"><path codeLine="97" d="M445.64,261.75 C469.12,305.45 525.5803,390.4396 561.5403,434.1896 " fill="none" id="EventManager-to-InterfaceView" style="stroke:#181818;stroke-width:1.0;"/><polygon fill="none" points="569.16,443.46,568.4403,436.2849,561.5403,434.1896,562.26,441.3647,569.16,443.46" style="stroke:#181818;stroke-width:1.0;"/></g><!--link EventManager to InterfaceView--><g id="link_EventManager_InterfaceView"><path codeLine="101" d="M462.27,261.75 C498.57,305.45 559.8438,394.4067 582.9938,438.1567 " fill="none" id="EventManager-to-InterfaceView-1" style="stroke:#181818;stroke-width:1.0;"/><polygon fill="#181818" points="585.8,443.46,585.1262,433.6342,583.4615,439.0406,578.0551,437.3758,585.8,443.46" style="stroke:#181818;stroke-width:1.0;"/></g><!--link EventManager to InterfaceController--><g id="link_EventManager_InterfaceController"><path codeLine="98" d="M412.49,261.75 C373.29,305.45 308.4449,389.4752 281.6649,433.2252 " fill="none" id="EventManager-to-InterfaceController" style="stroke:#181818;stroke-width:1.0;"/><polygon fill="none" points="275.4,443.46,281.944,440.4309,281.6649,433.2252,275.1208,436.2543,275.4,443.46" style="stroke:#181818;stroke-width:1.0;"/></g><!--link EventManager to InterfaceController--><g id="link_EventManager_InterfaceController"><path codeLine="100" d="M429.11,261.75 C402.74,305.45 335.6659,395.2611 296.0759,439.0111 " fill="none" id="EventManager-to-InterfaceController-1" style="stroke:#181818;stroke-width:1.0;"/><polygon fill="#181818" points="292.05,443.46,301.0547,439.4706,295.4049,439.7526,295.1229,434.1028,292.05,443.46" style="stroke:#181818;stroke-width:1.0;"/></g><!--link EventManager to ControllerLocal--><g id="link_EventManager_ControllerLocal"><path codeLine="99" d="M397.59,262.1 C324.63,304.6 177.64,390.81 169,400.63 C126.92,448.49 105.4274,516.1573 95.8774,553.4773 " fill="none" id="EventManager-to-ControllerLocal" style="stroke:#181818;stroke-width:1.0;"/><polygon fill="#181818" points="94.39,559.29,100.4963,551.5626,95.6295,554.4461,92.746,549.5793,94.39,559.29" style="stroke:#181818;stroke-width:1.0;"/></g><!--reverse link Event to EventManager--><g id="link_Event_EventManager"><path codeLine="103" d="M430.7545,159.8734 C432.4245,177.5434 434.14,195.77 435.81,213.43 " fill="none" id="Event-backto-EventManager" style="stroke:#181818;stroke-width:1.0;"/><polygon fill="#181818" points="430.19,153.9,427.0546,163.2364,430.6605,158.8778,435.0191,162.4837,430.19,153.9" style="stroke:#181818;stroke-width:1.0;"/></g><!--reverse link SlideEvent to Command--><g id="link_SlideEvent_Command"><path codeLine="104" d="M164,165.9 C164,183.57 164,195.77 164,213.43 " fill="none" id="SlideEvent-backto-Command" style="stroke:#181818;stroke-width:1.0;"/><polygon fill="none" points="164,153.9,160,159.9,164,165.9,168,159.9,164,153.9" style="stroke:#181818;stroke-width:1.0;"/></g><!--reverse link StateEvent to Screen--><g id="link_StateEvent_Screen"><path codeLine="105" d="M301.6739,165.8742 C300.5139,183.5442 299.7,195.77 298.53,213.43 " fill="none" id="StateEvent-backto-Screen" style="stroke:#181818;stroke-width:1.0;"/><polygon fill="none" points="302.46,153.9,298.0755,159.6251,301.6739,165.8742,306.0584,160.1491,302.46,153.9" style="stroke:#181818;stroke-width:1.0;"/></g><!--link Database to Logging--><g id="link_Database_Logging"><path codeLine="106" d="M438,785.19 C438,802.87 438,821.06 438,838.72 " fill="none" id="Database-to-Logging" style="stroke:#181818;stroke-width:1.0;"/><polygon fill="#181818" points="438,844.72,442,835.72,438,839.72,434,835.72,438,844.72" style="stroke:#181818;stroke-width:1.0;"/></g><!--link Model to Database--><g id="link_Model_Database"><path codeLine="108" d="M438,608.04 C438,641.54 438,697.02 438,730.58 " fill="none" id="Model-to-Database" style="stroke:#181818;stroke-width:1.0;"/><polygon fill="#181818" points="438,736.58,442,727.58,438,731.58,434,727.58,438,736.58" style="stroke:#181818;stroke-width:1.0;"/></g><!--link ControllerRemote to Database--><g id="link_ControllerRemote_Database"><path codeLine="109" d="M298.39,616.09 C331.91,650.63 380.9117,701.104 411.0317,732.144 " fill="none" id="ControllerRemote-to-Database" style="stroke:#181818;stroke-width:1.0;"/><polygon fill="#181818" points="415.21,736.45,411.8131,727.2055,411.728,732.8617,406.0718,732.7766,415.21,736.45" style="stroke:#181818;stroke-width:1.0;"/></g><!--link ControllerLocal to Database--><g id="link_ControllerLocal_Database"><path codeLine="110" d="M121.78,608.01 C137.01,618.36 155.58,630.34 173,639.93 C245.79,679.98 328.8973,715.8368 382.9773,737.9768 " fill="none" id="ControllerLocal-to-Database" style="stroke:#181818;stroke-width:1.0;"/><polygon fill="#181818" points="388.53,740.25,381.7165,733.1384,383.9028,738.3556,378.6855,740.5419,388.53,740.25" style="stroke:#181818;stroke-width:1.0;"/></g><!--link ViewGUI to Database--><g id="link_ViewGUI_Database"><path codeLine="111" d="M682.36,608.28 C671.45,618.56 658.03,630.42 645,639.93 C592.81,678 532.9704,711.3163 489.8504,733.7963 " fill="none" id="ViewGUI-to-Database" style="stroke:#181818;stroke-width:1.0;"/><polygon fill="#181818" points="484.53,736.57,494.3597,735.9564,488.9637,734.2586,490.6614,728.8625,484.53,736.57" style="stroke:#181818;stroke-width:1.0;"/></g><!--link ViewShell to Database--><g id="link_ViewShell_Database"><path codeLine="112" d="M560.28,608.04 C533.31,641.54 487.5719,698.3458 460.5619,731.9058 " fill="none" id="ViewShell-to-Database" style="stroke:#181818;stroke-width:1.0;"/><polygon fill="#181818" points="456.8,736.58,465.559,732.0767,459.9349,732.6848,459.3267,727.0608,456.8,736.58" style="stroke:#181818;stroke-width:1.0;"/></g><!--SRC=[bLJBJiCm4BpxA_83_eEg5q0eKdkW5LmhDrb2X6i7nu63uTzn70S_cuOS6dLcTdVMtar7gdVIG777cHISKX25GeL-AahwteDtl29qeZ36vls3iie3NBW4XN9QSkwb89MqGIMJ85v91Kbv5wSZEslodaXo9ZsS0eypgeeeSlprT3lUD2rhL9htuHEOFEq9qtzc0v5J8r7B1Pw6LgxH7IKHguGbwmPvW8y1-XKv9QmgJjlwXj2mnUOR2-nwIXZNHKXHx9b9eloMqhW_RywCPzqmzfOM9_5o8QnML_gl103B3C6Urq33oJBGmZo-jF0L18p0yGteqgACciVdKlrdFRn2WP7S_kYZnF7UhX5EQul2caPZ7L-ZJCCeOhacpV4Xv5-Rjiyj7i4Z4QHO53ZRgMoRT9-HhCnqmz4ssykWyMcAtK2R0x6JYTn-67WQIJH_nuenh_rO8OTkTDxvJ2CmkSIh_7GU4JtVRmQUxlON]--></g></svg>